<svg version="1.1" viewBox="0.0 0.0 600.0 371.0" fill="none" stroke="none" stroke-linecap="square" stroke-miterlimit="10" width="600" height="371" xmlns:xlink="http://www.w3.org/1999/xlink" xmlns="http://www.w3.org/2000/svg"><path fill="#ffffff" d="M0 0L600.0 0L600.0 371.0L0 371.0L0 0Z" fill-rule="nonzero"/><path fill="#fbbc04" d="M169.47324 81.40838C201.15088 41.685867 249.19301 18.55 300.0 18.55L300.0 185.5Z" fill-rule="nonzero"/><path fill="#ea4335" d="M227.56311 335.91675C181.78758 313.87244 148.54141 272.18304 137.23578 222.64987C125.93017 173.11671 137.7956 121.13089 169.47324 81.40838L300.0 185.5Z" fill-rule="nonzero"/><path fill="#4285f4" d="M300.0 18.55C368.663 18.55 430.32394 60.589725 455.40936 124.50632C480.49478 188.42291 463.8884 261.1803 413.55484 307.883C363.22128 354.58572 289.42633 365.70853 227.56311 335.91675L300.0 185.5Z" fill-rule="nonzero"/><path fill="#1a1a1a" d="M25.6125 35.08846L26.7375 35.385334Q26.378124 36.77596 25.45625 37.510334Q24.534374 38.24471 23.190624 38.24471Q21.8 38.24471 20.925 37.68221Q20.05 37.11971 19.596874 36.05721Q19.14375 34.979084 19.14375 33.74471Q19.14375 32.40096 19.659374 31.400959Q20.175 30.400959 21.1125 29.885334Q22.065624 29.369709 23.20625 29.369709Q24.4875 29.369709 25.3625 30.025959Q26.253124 30.682209 26.596874 31.869709L25.471874 32.135334Q25.175 31.197834 24.596874 30.775959Q24.034374 30.338459 23.175 30.338459Q22.190624 30.338459 21.51875 30.822834Q20.8625 31.291584 20.58125 32.08846Q20.315624 32.885334 20.315624 33.74471Q20.315624 34.83846 20.628124 35.65096Q20.95625 36.46346 21.628124 36.86971Q22.3 37.27596 23.096874 37.27596Q24.05 37.27596 24.70625 36.729084Q25.378124 36.18221 25.6125 35.08846ZM27.95625 34.99471Q27.95625 33.260334 28.909374 32.43221Q29.70625 31.744709 30.8625 31.744709Q32.14375 31.744709 32.95625 32.58846Q33.784374 33.416584 33.784374 34.90096Q33.784374 36.104084 33.425 36.791584Q33.065624 37.479084 32.3625 37.86971Q31.675 38.24471 30.8625 38.24471Q29.565624 38.24471 28.753124 37.416584Q27.95625 36.572834 27.95625 34.99471ZM29.034374 34.99471Q29.034374 36.18221 29.55 36.77596Q30.08125 37.36971 30.8625 37.36971Q31.659374 37.36971 32.175 36.77596Q32.690624 36.18221 32.690624 34.96346Q32.690624 33.80721 32.159374 33.21346Q31.64375 32.61971 30.8625 32.61971Q30.08125 32.61971 29.55 33.21346Q29.034374 33.791584 29.034374 34.99471ZM35.346874 38.104084L35.346874 31.885334L36.284374 31.885334L36.284374 32.760334Q36.58125 32.291584 37.065624 32.02596Q37.55 31.744709 38.175 31.744709Q38.8625 31.744709 39.3 32.02596Q39.753124 32.30721 39.925 32.822834Q40.675 31.744709 41.846874 31.744709Q42.784374 31.744709 43.26875 32.260334Q43.76875 32.760334 43.76875 33.83846L43.76875 38.104084L42.721874 38.104084L42.721874 34.18221Q42.721874 33.55721 42.6125 33.27596Q42.51875 32.99471 42.253124 32.822834Q41.9875 32.65096 41.6125 32.65096Q40.95625 32.65096 40.51875 33.08846Q40.096874 33.52596 40.096874 34.49471L40.096874 38.104084L39.034374 38.104084L39.034374 34.05721Q39.034374 33.354084 38.76875 33.010334Q38.51875 32.65096 37.940624 32.65096Q37.4875 32.65096 37.1125 32.885334Q36.7375 33.11971 36.565624 33.572834Q36.39375 34.02596 36.39375 34.86971L36.39375 38.104084L35.346874 38.104084ZM46.346874 40.49471L46.346874 31.885334L47.3 31.885334L47.3 32.68221Q47.64375 32.21346 48.065624 31.979084Q48.503124 31.744709 49.1125 31.744709Q49.909374 31.744709 50.51875 32.15096Q51.128124 32.55721 51.425 33.30721Q51.7375 34.05721 51.7375 34.947834Q51.7375 35.90096 51.39375 36.666584Q51.065624 37.43221 50.409374 37.83846Q49.753124 38.24471 49.034374 38.24471Q48.503124 38.24471 48.08125 38.02596Q47.659374 37.791584 47.39375 37.46346L47.39375 40.49471L46.346874 40.49471ZM47.3 35.02596Q47.3 36.229084 47.784374 36.80721Q48.26875 37.36971 48.95625 37.36971Q49.659374 37.36971 50.159374 36.77596Q50.659374 36.18221 50.659374 34.93221Q50.659374 33.74471 50.175 33.166584Q49.690624 32.572834 49.003124 32.572834Q48.33125 32.572834 47.815624 33.197834Q47.3 33.822834 47.3 35.02596ZM53.33125 38.104084L53.33125 31.885334L54.284374 31.885334L54.284374 32.822834Q54.64375 32.166584 54.940624 31.963459Q55.253124 31.744709 55.628124 31.744709Q56.159374 31.744709 56.70625 32.072834L56.346874 33.05721Q55.95625 32.822834 55.58125 32.822834Q55.221874 32.822834 54.940624 33.041584Q54.675 33.24471 54.565624 33.61971Q54.378124 34.18221 54.378124 34.83846L54.378124 38.104084L53.33125 38.104084ZM61.409374 37.33846Q60.815624 37.83846 60.26875 38.041584Q59.7375 38.24471 59.1125 38.24471Q58.08125 38.24471 57.534374 37.74471Q56.9875 37.24471 56.9875 36.46346Q56.9875 36.010334 57.190624 35.635334Q57.39375 35.24471 57.7375 35.02596Q58.08125 34.791584 58.503124 34.68221Q58.8 34.58846 59.440624 34.510334Q60.70625 34.36971 61.315624 34.15096Q61.315624 33.93221 61.315624 33.885334Q61.315624 33.229084 61.01875 32.96346Q60.6125 32.61971 59.815624 32.61971Q59.08125 32.61971 58.721874 32.885334Q58.3625 33.135334 58.190624 33.791584L57.159374 33.65096Q57.3 32.99471 57.628124 32.58846Q57.95625 32.18221 58.565624 31.963459Q59.175 31.744709 59.971874 31.744709Q60.76875 31.744709 61.26875 31.932209Q61.76875 32.11971 62.003124 32.40096Q62.2375 32.68221 62.33125 33.11971Q62.378124 33.385334 62.378124 34.08846L62.378124 35.49471Q62.378124 36.96346 62.440624 37.354084Q62.51875 37.74471 62.721874 38.104084L61.6125 38.104084Q61.45625 37.77596 61.409374 37.33846ZM61.315624 34.979084Q60.7375 35.21346 59.596874 35.385334Q58.940624 35.479084 58.675 35.604084Q58.409374 35.71346 58.253124 35.93221Q58.1125 36.15096 58.1125 36.43221Q58.1125 36.854084 58.425 37.135334Q58.753124 37.416584 59.3625 37.416584Q59.971874 37.416584 60.440624 37.15096Q60.925 36.885334 61.14375 36.416584Q61.315624 36.05721 61.315624 35.36971L61.315624 34.979084ZM63.925 36.24471L64.95625 36.08846Q65.05 36.71346 65.44063 37.041584Q65.84688 37.36971 66.58125 37.36971Q67.3 37.36971 67.64375 37.08846Q68.00313 36.791584 68.00313 36.385334Q68.00313 36.02596 67.69063 35.822834Q67.47188 35.68221 66.6125 35.46346Q65.45625 35.166584 65.00313 34.96346Q64.56563 34.74471 64.33125 34.36971Q64.09688 33.99471 64.09688 33.52596Q64.09688 33.11971 64.28438 32.760334Q64.47188 32.40096 64.8 32.166584Q65.05 31.994709 65.47188 31.869709Q65.89375 31.744709 66.39375 31.744709Q67.1125 31.744709 67.65938 31.963459Q68.22188 32.166584 68.4875 32.52596Q68.75313 32.885334 68.84688 33.479084L67.81563 33.61971Q67.75313 33.15096 67.40938 32.885334Q67.08125 32.604084 66.45625 32.604084Q65.7375 32.604084 65.425 32.854084Q65.1125 33.08846 65.1125 33.416584Q65.1125 33.61971 65.2375 33.77596Q65.37813 33.947834 65.64375 34.05721Q65.8 34.11971 66.58125 34.322834Q67.70625 34.635334 68.14375 34.822834Q68.58125 35.010334 68.83125 35.36971Q69.08125 35.729084 69.08125 36.27596Q69.08125 36.80721 68.76875 37.27596Q68.47188 37.729084 67.89375 37.99471Q67.31563 38.24471 66.58125 38.24471Q65.3625 38.24471 64.72188 37.74471Q64.09688 37.229084 63.925 36.24471Z" fill-rule="nonzero"/><path fill="#9e9e9e" d="M23.01875 55.104084L21.971874 55.104084L21.971874 48.385334Q21.58125 48.74471 20.95625 49.11971Q20.346874 49.479084 19.8625 49.65096L19.8625 48.635334Q20.7375 48.21346 21.39375 47.635334Q22.065624 47.041584 22.346874 46.479084L23.01875 46.479084L23.01875 55.104084ZM29.425 55.104084L29.425 53.041584L25.70625 53.041584L25.70625 52.072834L29.628124 46.510334L30.4875 46.510334L30.4875 52.072834L31.64375 52.072834L31.64375 53.041584L30.4875 53.041584L30.4875 55.104084L29.425 55.104084ZM29.425 52.072834L29.425 48.21346L26.7375 52.072834L29.425 52.072834ZM33.6125 55.104084L33.6125 53.90096L34.815624 53.90096L34.815624 55.104084Q34.815624 55.760334 34.58125 56.166584Q34.346874 56.58846 33.846874 56.80721L33.55 56.354084Q33.878124 56.21346 34.034374 55.916584Q34.190624 55.635334 34.221874 55.104084L33.6125 55.104084ZM36.05 52.83846L37.1125 52.697834Q37.284374 53.58846 37.721874 53.99471Q38.159374 54.385334 38.784374 54.385334Q39.534374 54.385334 40.05 53.86971Q40.565624 53.354084 40.565624 52.58846Q40.565624 51.86971 40.08125 51.40096Q39.6125 50.916584 38.878124 50.916584Q38.58125 50.916584 38.128124 51.041584L38.253124 50.104084Q38.3625 50.11971 38.425 50.11971Q39.096874 50.11971 39.628124 49.77596Q40.175 49.416584 40.175 48.68221Q40.175 48.104084 39.784374 47.729084Q39.39375 47.33846 38.76875 47.33846Q38.159374 47.33846 37.7375 47.729084Q37.33125 48.11971 37.221874 48.885334L36.159374 48.697834Q36.346874 47.65096 37.034374 47.072834Q37.721874 46.479084 38.7375 46.479084Q39.440624 46.479084 40.034374 46.791584Q40.628124 47.08846 40.940624 47.604084Q41.253124 48.11971 41.253124 48.71346Q41.253124 49.260334 40.95625 49.729084Q40.659374 50.18221 40.08125 50.447834Q40.83125 50.61971 41.253124 51.18221Q41.675 51.729084 41.675 52.572834Q41.675 53.697834 40.846874 54.479084Q40.034374 55.260334 38.784374 55.260334Q37.659374 55.260334 36.909374 54.58846Q36.159374 53.90096 36.05 52.83846ZM43.253124 48.572834Q43.253124 47.65096 43.70625 47.010334Q44.175 46.36971 45.05 46.36971Q45.8625 46.36971 46.39375 46.947834Q46.925 47.52596 46.925 48.635334Q46.925 49.729084 46.378124 50.322834Q45.846874 50.90096 45.065624 50.90096Q44.284374 50.90096 43.76875 50.322834Q43.253124 49.74471 43.253124 48.572834ZM45.08125 47.08846Q44.690624 47.08846 44.425 47.43221Q44.175 47.77596 44.175 48.68221Q44.175 49.510334 44.425 49.854084Q44.690624 50.18221 45.08125 50.18221Q45.4875 50.18221 45.7375 49.83846Q46.003124 49.49471 46.003124 48.604084Q46.003124 47.760334 45.7375 47.43221Q45.471874 47.08846 45.08125 47.08846ZM45.08125 55.416584L49.784374 46.36971L50.64375 46.36971L45.95625 55.416584L45.08125 55.416584ZM48.8 53.08846Q48.8 52.166584 49.253124 51.52596Q49.721874 50.885334 50.6125 50.885334Q51.425 50.885334 51.95625 51.46346Q52.4875 52.02596 52.4875 53.15096Q52.4875 54.24471 51.940624 54.83846Q51.409374 55.416584 50.6125 55.416584Q49.846874 55.416584 49.315624 54.83846Q48.8 54.260334 48.8 53.08846ZM50.64375 51.604084Q50.2375 51.604084 49.971874 51.947834Q49.721874 52.291584 49.721874 53.197834Q49.721874 54.010334 49.9875 54.354084Q50.253124 54.697834 50.64375 54.697834Q51.034374 54.697834 51.3 54.354084Q51.565624 54.010334 51.565624 53.104084Q51.565624 52.27596 51.3 51.947834Q51.034374 51.604084 50.64375 51.604084Z" fill-rule="nonzero"/><path stroke="#757575" stroke-width="1.0" stroke-linecap="butt" d="M18.55 42.604084L127.05 42.604084L231.18495 42.604084" fill-rule="nonzero"/><path fill="#9e9e9e" d="M233.18495 42.604084C233.18495 41.499516 232.28952 40.604084 231.18495 40.604084C230.08038 40.604084 229.18495 41.499516 229.18495 42.604084C229.18495 43.708656 230.08038 44.604084 231.18495 44.604084C232.28952 44.604084 233.18495 43.708656 233.18495 42.604084" fill-rule="nonzero"/><path fill="#1a1a1a" d="M21.659374 216.29237L21.659374 208.71425L18.83125 208.71425L18.83125 207.69862L25.64375 207.69862L25.64375 208.71425L22.8 208.71425L22.8 216.29237L21.659374 216.29237ZM26.33125 216.29237L26.33125 210.07362L27.284374 210.07362L27.284374 211.01112Q27.64375 210.35487 27.940624 210.15175Q28.253124 209.933 28.628124 209.933Q29.159374 209.933 29.70625 210.26112L29.346874 211.2455Q28.95625 211.01112 28.58125 211.01112Q28.221874 211.01112 27.940624 211.22987Q27.675 211.433 27.565624 211.808Q27.378124 212.3705 27.378124 213.02675L27.378124 216.29237L26.33125 216.29237ZM34.409374 215.52675Q33.815624 216.02675 33.26875 216.22987Q32.7375 216.433 32.1125 216.433Q31.08125 216.433 30.534374 215.933Q29.9875 215.433 29.9875 214.65175Q29.9875 214.19862 30.190624 213.82362Q30.39375 213.433 30.7375 213.21425Q31.08125 212.97987 31.503124 212.8705Q31.8 212.77675 32.440624 212.69862Q33.70625 212.558 34.315624 212.33925Q34.315624 212.1205 34.315624 212.07362Q34.315624 211.41737 34.01875 211.15175Q33.6125 210.808 32.815624 210.808Q32.08125 210.808 31.721874 211.07362Q31.3625 211.32362 31.190624 211.97987L30.159374 211.83925Q30.3 211.183 30.628124 210.77675Q30.95625 210.3705 31.565624 210.15175Q32.175 209.933 32.971874 209.933Q33.76875 209.933 34.26875 210.1205Q34.76875 210.308 35.003124 210.58925Q35.2375 210.8705 35.33125 211.308Q35.378124 211.57362 35.378124 212.27675L35.378124 213.683Q35.378124 215.15175 35.440624 215.54237Q35.51875 215.933 35.721874 216.29237L34.6125 216.29237Q34.45625 215.96425 34.409374 215.52675ZM34.315624 213.16737Q33.7375 213.40175 32.596874 213.57362Q31.940624 213.66737 31.675 213.79237Q31.409374 213.90175 31.253124 214.1205Q31.1125 214.33925 31.1125 214.6205Q31.1125 215.04237 31.425 215.32362Q31.753124 215.60487 32.3625 215.60487Q32.971874 215.60487 33.440624 215.33925Q33.925 215.07362 34.14375 214.60487Q34.315624 214.2455 34.315624 213.558L34.315624 213.16737ZM37.346874 216.29237L37.346874 210.07362L38.284374 210.07362L38.284374 210.94862Q38.971874 209.933 40.26875 209.933Q40.83125 209.933 41.3 210.13612Q41.784374 210.33925 42.01875 210.66737Q42.253124 210.9955 42.346874 211.433Q42.39375 211.72987 42.39375 212.46425L42.39375 216.29237L41.346874 216.29237L41.346874 212.51112Q41.346874 211.85487 41.221874 211.54237Q41.096874 211.22987 40.784374 211.04237Q40.471874 210.83925 40.05 210.83925Q39.378124 210.83925 38.878124 211.27675Q38.39375 211.69862 38.39375 212.88612L38.39375 216.29237L37.346874 216.29237ZM43.925 214.433L44.95625 214.27675Q45.05 214.90175 45.440624 215.22987Q45.846874 215.558 46.58125 215.558Q47.3 215.558 47.64375 215.27675Q48.003124 214.97987 48.003124 214.57362Q48.003124 214.21425 47.690624 214.01112Q47.471874 213.8705 46.6125 213.65175Q45.45625 213.35487 45.003124 213.15175Q44.565624 212.933 44.33125 212.558Q44.096874 212.183 44.096874 211.71425Q44.096874 211.308 44.284374 210.94862Q44.471874 210.58925 44.8 210.35487Q45.05 210.183 45.471874 210.058Q45.89375 209.933 46.39375 209.933Q47.1125 209.933 47.659374 210.15175Q48.221874 210.35487 48.4875 210.71425Q48.753124 211.07362 48.846874 211.66737L47.815624 211.808Q47.753124 211.33925 47.409374 211.07362Q47.08125 210.79237 46.45625 210.79237Q45.7375 210.79237 45.425 211.04237Q45.1125 211.27675 45.1125 211.60487Q45.1125 211.808 45.2375 211.96425Q45.378124 212.13612 45.64375 212.2455Q45.8 212.308 46.58125 212.51112Q47.70625 212.82362 48.14375 213.01112Q48.58125 213.19862 48.83125 213.558Q49.08125 213.91737 49.08125 214.46425Q49.08125 214.9955 48.76875 215.46425Q48.471874 215.91737 47.89375 216.183Q47.315624 216.433 46.58125 216.433Q45.3625 216.433 44.721874 215.933Q44.096874 215.41737 43.925 214.433ZM51.346874 218.683L51.346874 210.07362L52.3 210.07362L52.3 210.8705Q52.64375 210.40175 53.065624 210.16737Q53.503124 209.933 54.1125 209.933Q54.909374 209.933 55.51875 210.33925Q56.128124 210.7455 56.425 211.4955Q56.7375 212.2455 56.7375 213.13612Q56.7375 214.08925 56.39375 214.85487Q56.065624 215.6205 55.409374 216.02675Q54.753124 216.433 54.034374 216.433Q53.503124 216.433 53.08125 216.21425Q52.659374 215.97987 52.39375 215.65175L52.39375 218.683L51.346874 218.683ZM52.3 213.21425Q52.3 214.41737 52.784374 214.9955Q53.26875 215.558 53.95625 215.558Q54.659374 215.558 55.159374 214.96425Q55.659374 214.3705 55.659374 213.1205Q55.659374 211.933 55.175 211.35487Q54.690624 210.76112 54.003124 210.76112Q53.33125 210.76112 52.815624 211.38612Q52.3 212.01112 52.3 213.21425ZM57.95625 213.183Q57.95625 211.44862 58.909374 210.6205Q59.70625 209.933 60.8625 209.933Q62.14375 209.933 62.95625 210.77675Q63.784374 211.60487 63.784374 213.08925Q63.784374 214.29237 63.425 214.97987Q63.065624 215.66737 62.3625 216.058Q61.675 216.433 60.8625 216.433Q59.565624 216.433 58.753124 215.60487Q57.95625 214.76112 57.95625 213.183ZM59.034374 213.183Q59.034374 214.3705 59.55 214.96425Q60.08125 215.558 60.8625 215.558Q61.659374 215.558 62.175 214.96425Q62.690624 214.3705 62.690624 213.15175Q62.690624 211.9955 62.159374 211.40175Q61.64375 210.808 60.8625 210.808Q60.08125 210.808 59.55 211.40175Q59.034374 211.97987 59.034374 213.183ZM65.33125 216.29237L65.33125 210.07362L66.28438 210.07362L66.28438 211.01112Q66.64375 210.35487 66.94063 210.15175Q67.25313 209.933 67.62813 209.933Q68.15938 209.933 68.70625 210.26112L68.34688 211.2455Q67.95625 211.01112 67.58125 211.01112Q67.22188 211.01112 66.94063 211.22987Q66.675 211.433 66.56563 211.808Q66.37813 212.3705 66.37813 213.02675L66.37813 216.29237L65.33125 216.29237ZM71.64375 215.35487L71.8 216.27675Q71.34688 216.3705 71.00313 216.3705Q70.425 216.3705 70.1125 216.19862Q69.8 216.01112 69.65938 215.71425Q69.53438 215.41737 69.53438 214.46425L69.53438 210.88612L68.76875 210.88612L68.76875 210.07362L69.53438 210.07362L69.53438 208.52675L70.58125 207.90175L70.58125 210.07362L71.64375 210.07362L71.64375 210.88612L70.58125 210.88612L70.58125 214.52675Q70.58125 214.97987 70.62813 215.10487Q70.69063 215.22987 70.81563 215.308Q70.94063 215.38612 71.175 215.38612Q71.3625 215.38612 71.64375 215.35487ZM76.59688 214.29237L77.69063 214.41737Q77.44063 215.3705 76.7375 215.90175Q76.03438 216.433 74.95625 216.433Q73.59688 216.433 72.78438 215.58925Q71.9875 214.7455 71.9875 213.22987Q71.9875 211.66737 72.8 210.808Q73.6125 209.933 74.89375 209.933Q76.14375 209.933 76.925 210.77675Q77.72188 211.6205 77.72188 213.16737Q77.72188 213.26112 77.72188 213.44862L73.08125 213.44862Q73.14375 214.47987 73.65938 215.02675Q74.175 215.558 74.95625 215.558Q75.53438 215.558 75.94063 215.26112Q76.3625 214.94862 76.59688 214.29237ZM73.14375 212.58925L76.6125 212.58925Q76.55 211.79237 76.22188 211.40175Q75.70625 210.79237 74.90938 210.79237Q74.175 210.79237 73.675 211.27675Q73.19063 211.76112 73.14375 212.58925Z" fill-rule="nonzero"/><path fill="#9e9e9e" d="M24.596874 232.27675L24.596874 233.29237L18.909374 233.29237Q18.909374 232.91737 19.034374 232.558Q19.253124 231.97987 19.721874 231.41737Q20.20625 230.85487 21.1125 230.1205Q22.51875 228.96425 23.003124 228.29237Q23.503124 227.6205 23.503124 227.02675Q23.503124 226.40175 23.05 225.97987Q22.596874 225.54237 21.878124 225.54237Q21.1125 225.54237 20.659374 225.9955Q20.20625 226.44862 20.190624 227.26112L19.1125 227.15175Q19.221874 225.933 19.940624 225.308Q20.675 224.66737 21.909374 224.66737Q23.14375 224.66737 23.8625 225.35487Q24.58125 226.04237 24.58125 227.058Q24.58125 227.57362 24.3625 228.07362Q24.159374 228.558 23.659374 229.1205Q23.175 229.66737 22.05 230.6205Q21.096874 231.41737 20.815624 231.71425Q20.55 231.9955 20.378124 232.27675L24.596874 232.27675ZM27.675 228.63612Q27.01875 228.38612 26.690624 227.94862Q26.378124 227.4955 26.378124 226.88612Q26.378124 225.94862 27.05 225.308Q27.7375 224.66737 28.846874 224.66737Q29.971874 224.66737 30.659374 225.32362Q31.346874 225.97987 31.346874 226.91737Q31.346874 227.51112 31.034374 227.94862Q30.721874 228.38612 30.08125 228.63612Q30.878124 228.88612 31.284374 229.46425Q31.690624 230.04237 31.690624 230.83925Q31.690624 231.933 30.909374 232.683Q30.14375 233.433 28.8625 233.433Q27.596874 233.433 26.815624 232.683Q26.034374 231.933 26.034374 230.808Q26.034374 229.96425 26.45625 229.40175Q26.89375 228.83925 27.675 228.63612ZM27.45625 226.83925Q27.45625 227.44862 27.846874 227.83925Q28.253124 228.22987 28.878124 228.22987Q29.4875 228.22987 29.878124 227.85487Q30.26875 227.46425 30.26875 226.90175Q30.26875 226.32362 29.8625 225.933Q29.45625 225.52675 28.8625 225.52675Q28.253124 225.52675 27.846874 225.91737Q27.45625 226.308 27.45625 226.83925ZM27.128124 230.808Q27.128124 231.26112 27.33125 231.683Q27.55 232.10487 27.971874 232.33925Q28.39375 232.57362 28.878124 232.57362Q29.628124 232.57362 30.1125 232.08925Q30.6125 231.60487 30.6125 230.85487Q30.6125 230.08925 30.1125 229.58925Q29.6125 229.08925 28.846874 229.08925Q28.096874 229.08925 27.6125 229.58925Q27.128124 230.07362 27.128124 230.808ZM33.6125 233.29237L33.6125 232.08925L34.815624 232.08925L34.815624 233.29237Q34.815624 233.94862 34.58125 234.35487Q34.346874 234.77675 33.846874 234.9955L33.55 234.54237Q33.878124 234.40175 34.034374 234.10487Q34.190624 233.82362 34.221874 233.29237L33.6125 233.29237ZM41.51875 226.808L40.471874 226.88612Q40.33125 226.26112 40.08125 225.97987Q39.64375 225.52675 39.01875 225.52675Q38.51875 225.52675 38.128124 225.808Q37.64375 226.183 37.346874 226.88612Q37.065624 227.57362 37.05 228.85487Q37.425 228.27675 37.971874 227.9955Q38.534374 227.71425 39.14375 227.71425Q40.190624 227.71425 40.925 228.4955Q41.675 229.27675 41.675 230.4955Q41.675 231.308 41.315624 232.01112Q40.971874 232.69862 40.3625 233.07362Q39.753124 233.433 38.9875 233.433Q37.659374 233.433 36.83125 232.46425Q36.003124 231.4955 36.003124 229.27675Q36.003124 226.77675 36.925 225.65175Q37.721874 224.66737 39.08125 224.66737Q40.096874 224.66737 40.7375 225.2455Q41.39375 225.808 41.51875 226.808ZM37.221874 230.51112Q37.221874 231.058 37.440624 231.558Q37.675 232.04237 38.08125 232.308Q38.503124 232.57362 38.971874 232.57362Q39.628124 232.57362 40.1125 232.04237Q40.596874 231.4955 40.596874 230.57362Q40.596874 229.683 40.1125 229.16737Q39.64375 228.65175 38.925 228.65175Q38.20625 228.65175 37.70625 229.16737Q37.221874 229.683 37.221874 230.51112ZM43.253124 226.76112Q43.253124 225.83925 43.70625 225.19862Q44.175 224.558 45.05 224.558Q45.8625 224.558 46.39375 225.13612Q46.925 225.71425 46.925 226.82362Q46.925 227.91737 46.378124 228.51112Q45.846874 229.08925 45.065624 229.08925Q44.284374 229.08925 43.76875 228.51112Q43.253124 227.933 43.253124 226.76112ZM45.08125 225.27675Q44.690624 225.27675 44.425 225.6205Q44.175 225.96425 44.175 226.8705Q44.175 227.69862 44.425 228.04237Q44.690624 228.3705 45.08125 228.3705Q45.4875 228.3705 45.7375 228.02675Q46.003124 227.683 46.003124 226.79237Q46.003124 225.94862 45.7375 225.6205Q45.471874 225.27675 45.08125 225.27675ZM45.08125 233.60487L49.784374 224.558L50.64375 224.558L45.95625 233.60487L45.08125 233.60487ZM48.8 231.27675Q48.8 230.35487 49.253124 229.71425Q49.721874 229.07362 50.6125 229.07362Q51.425 229.07362 51.95625 229.65175Q52.4875 230.21425 52.4875 231.33925Q52.4875 232.433 51.940624 233.02675Q51.409374 233.60487 50.6125 233.60487Q49.846874 233.60487 49.315624 233.02675Q48.8 232.44862 48.8 231.27675ZM50.64375 229.79237Q50.2375 229.79237 49.971874 230.13612Q49.721874 230.47987 49.721874 231.38612Q49.721874 232.19862 49.9875 232.54237Q50.253124 232.88612 50.64375 232.88612Q51.034374 232.88612 51.3 232.54237Q51.565624 232.19862 51.565624 231.29237Q51.565624 230.46425 51.3 230.13612Q51.034374 229.79237 50.64375 229.79237Z" fill-rule="nonzero"/><path stroke="#757575" stroke-width="1.0" stroke-linecap="butt" d="M18.55 220.79237L127.05 220.79237L145.374 220.79237" fill-rule="nonzero"/><path fill="#9e9e9e" d="M147.374 220.79237C147.374 219.6878 146.47856 218.79237 145.374 218.79237C144.26942 218.79237 143.374 219.6878 143.374 220.79237C143.374 221.89694 144.26942 222.79237 145.374 222.79237C146.47856 222.79237 147.374 221.89694 147.374 220.79237" fill-rule="nonzero"/><path fill="#1a1a1a" d="M513.4344 216.29237L516.73126 207.69862L517.95 207.69862L521.46564 216.29237L520.1844 216.29237L519.16876 213.683L515.59064 213.683L514.6375 216.29237L513.4344 216.29237ZM515.91876 212.76112L518.825 212.76112L517.9344 210.38612Q517.5125 209.308 517.325 208.60487Q517.15314 209.433 516.85626 210.2455L515.91876 212.76112ZM521.21564 216.29237L521.21564 207.69862L522.27814 207.69862L522.27814 216.29237L521.21564 216.29237ZM524.2469 208.91737L524.2469 207.69862L525.3094 207.69862L525.3094 208.91737L524.2469 208.91737ZM524.2469 216.29237L524.2469 210.07362L525.3094 210.07362L525.3094 216.29237L524.2469 216.29237ZM527.2469 216.29237L527.2469 210.07362L528.1844 210.07362L528.1844 210.94862Q528.48126 210.47987 528.96564 210.21425Q529.45 209.933 530.075 209.933Q530.7625 209.933 531.2 210.21425Q531.65314 210.4955 531.825 211.01112Q532.575 209.933 533.7469 209.933Q534.6844 209.933 535.16876 210.44862Q535.66876 210.94862 535.66876 212.02675L535.66876 216.29237L534.6219 216.29237L534.6219 212.3705Q534.6219 211.7455 534.5125 211.46425Q534.41876 211.183 534.15314 211.01112Q533.8875 210.83925 533.5125 210.83925Q532.85626 210.83925 532.41876 211.27675Q531.9969 211.71425 531.9969 212.683L531.9969 216.29237L530.9344 216.29237L530.9344 212.2455Q530.9344 211.54237 530.66876 211.19862Q530.41876 210.83925 529.84064 210.83925Q529.3875 210.83925 529.0125 211.07362Q528.6375 211.308 528.46564 211.76112Q528.29376 212.21425 528.29376 213.058L528.29376 216.29237L527.2469 216.29237ZM542.4969 214.29237L543.59064 214.41737Q543.34064 215.3705 542.6375 215.90175Q541.9344 216.433 540.85626 216.433Q539.4969 216.433 538.6844 215.58925Q537.8875 214.7455 537.8875 213.22987Q537.8875 211.66737 538.7 210.808Q539.5125 209.933 540.79376 209.933Q542.04376 209.933 542.825 210.77675Q543.6219 211.6205 543.6219 213.16737Q543.6219 213.26112 543.6219 213.44862L538.98126 213.44862Q539.04376 214.47987 539.5594 215.02675Q540.075 215.558 540.85626 215.558Q541.4344 215.558 541.84064 215.26112Q542.2625 214.94862 542.4969 214.29237ZM539.04376 212.58925L542.5125 212.58925Q542.45 211.79237 542.1219 211.40175Q541.60626 210.79237 540.8094 210.79237Q540.075 210.79237 539.575 211.27675Q539.09064 211.76112 539.04376 212.58925ZM545.2469 216.29237L545.2469 210.07362L546.1844 210.07362L546.1844 210.94862Q546.8719 209.933 548.16876 209.933Q548.73126 209.933 549.2 210.13612Q549.6844 210.33925 549.91876 210.66737Q550.15314 210.9955 550.2469 211.433Q550.29376 211.72987 550.29376 212.46425L550.29376 216.29237L549.2469 216.29237L549.2469 212.51112Q549.2469 211.85487 549.1219 211.54237Q548.9969 211.22987 548.6844 211.04237Q548.3719 210.83925 547.95 210.83925Q547.27814 210.83925 546.77814 211.27675Q546.29376 211.69862 546.29376 212.88612L546.29376 216.29237L545.2469 216.29237ZM554.54376 215.35487L554.7 216.27675Q554.2469 216.3705 553.90314 216.3705Q553.325 216.3705 553.0125 216.19862Q552.7 216.01112 552.5594 215.71425Q552.4344 215.41737 552.4344 214.46425L552.4344 210.88612L551.66876 210.88612L551.66876 210.07362L552.4344 210.07362L552.4344 208.52675L553.48126 207.90175L553.48126 210.07362L554.54376 210.07362L554.54376 210.88612L553.48126 210.88612L553.48126 214.52675Q553.48126 214.97987 553.52814 215.10487Q553.59064 215.22987 553.71564 215.308Q553.84064 215.38612 554.075 215.38612Q554.2625 215.38612 554.54376 215.35487ZM559.3094 215.52675Q558.71564 216.02675 558.16876 216.22987Q557.6375 216.433 557.0125 216.433Q555.98126 216.433 555.4344 215.933Q554.8875 215.433 554.8875 214.65175Q554.8875 214.19862 555.09064 213.82362Q555.29376 213.433 555.6375 213.21425Q555.98126 212.97987 556.40314 212.8705Q556.7 212.77675 557.34064 212.69862Q558.60626 212.558 559.21564 212.33925Q559.21564 212.1205 559.21564 212.07362Q559.21564 211.41737 558.91876 211.15175Q558.5125 210.808 557.71564 210.808Q556.98126 210.808 556.6219 211.07362Q556.2625 211.32362 556.09064 211.97987L555.0594 211.83925Q555.2 211.183 555.52814 210.77675Q555.85626 210.3705 556.46564 210.15175Q557.075 209.933 557.8719 209.933Q558.66876 209.933 559.16876 210.1205Q559.66876 210.308 559.90314 210.58925Q560.1375 210.8705 560.23126 211.308Q560.27814 211.57362 560.27814 212.27675L560.27814 213.683Q560.27814 215.15175 560.34064 215.54237Q560.41876 215.933 560.6219 216.29237L559.5125 216.29237Q559.35626 215.96425 559.3094 215.52675ZM559.21564 213.16737Q558.6375 213.40175 557.4969 213.57362Q556.84064 213.66737 556.575 213.79237Q556.3094 213.90175 556.15314 214.1205Q556.0125 214.33925 556.0125 214.6205Q556.0125 215.04237 556.325 215.32362Q556.65314 215.60487 557.2625 215.60487Q557.8719 215.60487 558.34064 215.33925Q558.825 215.07362 559.04376 214.60487Q559.21564 214.2455 559.21564 213.558L559.21564 213.16737ZM566.3094 214.01112L567.34064 214.15175Q567.16876 215.21425 566.46564 215.82362Q565.7625 216.433 564.7469 216.433Q563.46564 216.433 562.6844 215.60487Q561.91876 214.76112 561.91876 213.19862Q561.91876 212.19862 562.2469 211.44862Q562.59064 210.683 563.2625 210.308Q563.95 209.933 564.7625 209.933Q565.7625 209.933 566.40314 210.44862Q567.0594 210.94862 567.2469 211.90175L566.21564 212.058Q566.075 211.433 565.7 211.1205Q565.325 210.79237 564.79376 210.79237Q563.9969 210.79237 563.4969 211.3705Q562.9969 211.933 562.9969 213.16737Q562.9969 214.433 563.48126 214.9955Q563.96564 215.558 564.73126 215.558Q565.35626 215.558 565.7625 215.183Q566.1844 214.808 566.3094 214.01112ZM563.85626 217.07362L564.16876 216.02675L564.95 216.02675L564.7469 216.66737Q565.2469 216.71425 565.4969 216.96425Q565.7625 217.21425 565.7625 217.52675Q565.7625 217.96425 565.34064 218.29237Q564.91876 218.63612 564.0594 218.63612Q563.575 218.63612 563.21564 218.558L563.27814 217.88612Q563.65314 217.90175 563.84064 217.90175Q564.3875 217.90175 564.60626 217.7455Q564.77814 217.63612 564.77814 217.46425Q564.77814 217.35487 564.7 217.27675Q564.6375 217.19862 564.45 217.13612Q564.27814 217.07362 563.85626 217.07362ZM572.3094 215.52675Q571.71564 216.02675 571.16876 216.22987Q570.6375 216.433 570.0125 216.433Q568.98126 216.433 568.4344 215.933Q567.8875 215.433 567.8875 214.65175Q567.8875 214.19862 568.09064 213.82362Q568.29376 213.433 568.6375 213.21425Q568.98126 212.97987 569.40314 212.8705Q569.7 212.77675 570.34064 212.69862Q571.60626 212.558 572.21564 212.33925Q572.21564 212.1205 572.21564 212.07362Q572.21564 211.41737 571.91876 211.15175Q571.5125 210.808 570.71564 210.808Q569.98126 210.808 569.6219 211.07362Q569.2625 211.32362 569.09064 211.97987L568.0594 211.83925Q568.2 211.183 568.52814 210.77675Q568.85626 210.3705 569.46564 210.15175Q570.075 209.933 570.8719 209.933Q571.66876 209.933 572.16876 210.1205Q572.66876 210.308 572.90314 210.58925Q573.1375 210.8705 573.23126 211.308Q573.27814 211.57362 573.27814 212.27675L573.27814 213.683Q573.27814 215.15175 573.34064 215.54237Q573.41876 215.933 573.6219 216.29237L572.5125 216.29237Q572.35626 215.96425 572.3094 215.52675ZM572.21564 213.16737Q571.6375 213.40175 570.4969 213.57362Q569.84064 213.66737 569.575 213.79237Q569.3094 213.90175 569.15314 214.1205Q569.0125 214.33925 569.0125 214.6205Q569.0125 215.04237 569.325 215.32362Q569.65314 215.60487 570.2625 215.60487Q570.8719 215.60487 571.34064 215.33925Q571.825 215.07362 572.04376 214.60487Q572.21564 214.2455 572.21564 213.558L572.21564 213.16737ZM568.79376 209.15175Q568.77814 208.54237 569.1219 208.183Q569.45 207.808 569.98126 207.808Q570.34064 207.808 570.96564 208.13612Q571.3094 208.308 571.5125 208.308Q571.7 208.308 571.79376 208.21425Q571.90314 208.10487 571.95 207.79237L572.71564 207.79237Q572.6844 208.46425 572.3719 208.808Q572.0594 209.13612 571.5594 209.13612Q571.1844 209.13612 570.59064 208.808Q570.2 208.58925 570.0125 208.58925Q569.8094 208.58925 569.6844 208.72987Q569.5594 208.8705 569.575 209.15175L568.79376 209.15175ZM574.85626 213.183Q574.85626 211.44862 575.8094 210.6205Q576.60626 209.933 577.7625 209.933Q579.04376 209.933 579.85626 210.77675Q580.6844 211.60487 580.6844 213.08925Q580.6844 214.29237 580.325 214.97987Q579.96564 215.66737 579.2625 216.058Q578.575 216.433 577.7625 216.433Q576.46564 216.433 575.65314 215.60487Q574.85626 214.76112 574.85626 213.183ZM575.9344 213.183Q575.9344 214.3705 576.45 214.96425Q576.98126 215.558 577.7625 215.558Q578.5594 215.558 579.075 214.96425Q579.59064 214.3705 579.59064 213.15175Q579.59064 211.9955 579.0594 211.40175Q578.54376 210.808 577.7625 210.808Q576.98126 210.808 576.45 211.40175Q575.9344 211.97987 575.9344 213.183Z" fill-rule="nonzero"/><path fill="#9e9e9e" d="M546.95 231.04237L548.0594 230.94862Q548.1844 231.76112 548.6219 232.16737Q549.075 232.57362 549.71564 232.57362Q550.46564 232.57362 550.9969 231.9955Q551.52814 231.41737 551.52814 230.47987Q551.52814 229.57362 551.0125 229.058Q550.5125 228.52675 549.6844 228.52675Q549.1844 228.52675 548.7625 228.76112Q548.35626 228.9955 548.1219 229.35487L547.1375 229.22987L547.96564 224.82362L552.2469 224.82362L552.2469 225.82362L548.8094 225.82362L548.35626 228.13612Q549.1219 227.58925 549.96564 227.58925Q551.09064 227.58925 551.85626 228.3705Q552.6375 229.15175 552.6375 230.38612Q552.6375 231.54237 551.96564 232.40175Q551.1375 233.433 549.71564 233.433Q548.54376 233.433 547.79376 232.77675Q547.0594 232.1205 546.95 231.04237ZM554.0125 225.82362L554.0125 224.808L559.575 224.808L559.575 225.63612Q558.7625 226.51112 557.95 227.96425Q557.15314 229.40175 556.71564 230.933Q556.3875 232.01112 556.3094 233.29237L555.21564 233.29237Q555.23126 232.27675 555.60626 230.83925Q555.9969 229.40175 556.7 228.07362Q557.41876 226.7455 558.23126 225.82362L554.0125 225.82362ZM561.5125 233.29237L561.5125 232.08925L562.71564 232.08925L562.71564 233.29237Q562.71564 233.94862 562.48126 234.35487Q562.2469 234.77675 561.7469 234.9955L561.45 234.54237Q561.77814 234.40175 561.9344 234.10487Q562.09064 233.82362 562.1219 233.29237L561.5125 233.29237ZM567.91876 233.29237L566.8719 233.29237L566.8719 226.57362Q566.48126 226.933 565.85626 227.308Q565.2469 227.66737 564.7625 227.83925L564.7625 226.82362Q565.6375 226.40175 566.29376 225.82362Q566.96564 225.22987 567.2469 224.66737L567.91876 224.66737L567.91876 233.29237ZM571.15314 226.76112Q571.15314 225.83925 571.60626 225.19862Q572.075 224.558 572.95 224.558Q573.7625 224.558 574.29376 225.13612Q574.825 225.71425 574.825 226.82362Q574.825 227.91737 574.27814 228.51112Q573.7469 229.08925 572.96564 229.08925Q572.1844 229.08925 571.66876 228.51112Q571.15314 227.933 571.15314 226.76112ZM572.98126 225.27675Q572.59064 225.27675 572.325 225.6205Q572.075 225.96425 572.075 226.8705Q572.075 227.69862 572.325 228.04237Q572.59064 228.3705 572.98126 228.3705Q573.3875 228.3705 573.6375 228.02675Q573.90314 227.683 573.90314 226.79237Q573.90314 225.94862 573.6375 225.6205Q573.3719 225.27675 572.98126 225.27675ZM572.98126 233.60487L577.6844 224.558L578.54376 224.558L573.85626 233.60487L572.98126 233.60487ZM576.7 231.27675Q576.7 230.35487 577.15314 229.71425Q577.6219 229.07362 578.5125 229.07362Q579.325 229.07362 579.85626 229.65175Q580.3875 230.21425 580.3875 231.33925Q580.3875 232.433 579.84064 233.02675Q579.3094 233.60487 578.5125 233.60487Q577.7469 233.60487 577.21564 233.02675Q576.7 232.44862 576.7 231.27675ZM578.54376 229.79237Q578.1375 229.79237 577.8719 230.13612Q577.6219 230.47987 577.6219 231.38612Q577.6219 232.19862 577.8875 232.54237Q578.15314 232.88612 578.54376 232.88612Q578.9344 232.88612 579.2 232.54237Q579.46564 232.19862 579.46564 231.29237Q579.46564 230.46425 579.2 230.13612Q578.9344 229.79237 578.54376 229.79237Z" fill-rule="nonzero"/><path stroke="#757575" stroke-width="1.0" stroke-linecap="butt" d="M581.45 220.79237L472.95 220.79237L454.626 220.79237" fill-rule="nonzero"/><path fill="#9e9e9e" d="M456.626 220.79237C456.626 219.6878 455.73056 218.79237 454.626 218.79237C453.52142 218.79237 452.626 219.6878 452.626 220.79237C452.626 221.89694 453.52142 222.79237 454.626 222.79237C455.73056 222.79237 456.626 221.89694 456.626 220.79237" fill-rule="nonzero"/></svg>